<mxfile host="app.diagrams.net" modified="2022-04-20T09:38:20.957Z" agent="5.0 (Windows NT 10.0; Win64; x64) AppleWebKit/537.36 (KHTML, like Gecko) Chrome/100.0.4896.127 Safari/537.36 Edg/100.0.1185.44" etag="SZtvmvzH_ibFa6HT_0zA" version="17.4.3" type="github">
  <diagram id="W7IAQKvSRNKXDXAnNsGo" name="第 1 页">
    <mxGraphModel dx="1038" dy="539" grid="1" gridSize="10" guides="1" tooltips="1" connect="1" arrows="1" fold="1" page="1" pageScale="1" pageWidth="827" pageHeight="1169" math="0" shadow="0">
      <root>
        <mxCell id="0" />
        <mxCell id="1" parent="0" />
        <mxCell id="tWi3SjY2gW3adJx6cIpa-1" value="" style="whiteSpace=wrap;html=1;aspect=fixed;" vertex="1" parent="1">
          <mxGeometry x="179" y="40" width="470" height="470" as="geometry" />
        </mxCell>
        <mxCell id="tWi3SjY2gW3adJx6cIpa-9" value="时段名称&lt;br&gt;" style="rounded=0;whiteSpace=wrap;html=1;" vertex="1" parent="1">
          <mxGeometry x="250" y="110" width="340" height="60" as="geometry" />
        </mxCell>
        <mxCell id="tWi3SjY2gW3adJx6cIpa-11" value="起止时间" style="rounded=0;whiteSpace=wrap;html=1;" vertex="1" parent="1">
          <mxGeometry x="250" y="220" width="340" height="60" as="geometry" />
        </mxCell>
      </root>
    </mxGraphModel>
  </diagram>
</mxfile>
